<?xml version="1.0" encoding="utf-8"?>
<!-- Generator: Adobe Illustrator 23.0.3, SVG Export Plug-In . SVG Version: 6.00 Build 0)  -->
<svg version="1.1" id="Layer_1" xmlns="http://www.w3.org/2000/svg" xmlns:xlink="http://www.w3.org/1999/xlink" x="0px" y="0px"
	 viewBox="0 0 997.8 222" style="enable-background:new 0 0 997.8 222;" xml:space="preserve">
<style type="text/css">
	.st0{fill:#878787;}
	.st1{fill:#454545;}
	.st2{fill:#969696;}
	.st3{fill:#777777;}
	.st4{fill:#343434;}
	.st5{fill:#575757;}
	.st6{fill:#686868;}
	.st7{fill:#202020;}
	.st8{fill:#0B0B0B;}
</style>
<path class="st0" d="M560.9,0h72c3.5,3.1,2.8,7,1.7,10.6c-1,3.4-1.1,6.4,0.1,9.8c1.4,4.1,0.7,8.6,1.5,12.9
	c1.2,6.8,4.5,12.8,6.8,19.2c3,8.4,5.7,17,9.7,25.1c6.8,13.7,11.8,28.3,19.5,41.5c6.4,10.9,12.8,21.6,20.8,31.6
	c7.6,9.5,17.3,15.3,27.5,20.8c1.5,0.8,3,1.5,4.7,1.6c14.6,1.5,28.2,0,41.1-8.3c19.2-12.3,27.7-31.1,33.7-51.7
	c0.3-1.1,0.4-2.3,0.4-3.5c-0.1-9.8,5.4-19.7,0.1-29.5c0.9-8.1-1.9-15.6-4.7-22.8c-6.8-17.3-15.2-33.6-28.4-47
	c-4.2-4.3-4.6-6.8-2.4-10.2h108c4.8,2.2,7.4,6.4,10.2,10.5c3.2,4.8,7.8,8.5,11.1,13.4c4.3,6.5,6.8,13.4,7.1,20.9
	c0.3,9.3,0.9,18.7-2.1,27.7c-2.8,8.3-6,16.5-10.4,24.2c-8.6,15-16.8,30.2-25.1,45.4c-8,14.5-15.2,29.6-24.9,43.1
	c-9.1,12.7-19.3,24.5-33.3,32.5c-3.7,2.1-8.2,1.5-11.5,4.3h-87c-4.5-2.3-9.4-3.4-13.6-6.6c-3-2.3-6.2-4.3-8.9-7
	c-3.9-3.9-7.6-8-11.7-11.6c-8.9-7.8-14.5-18-20.9-27.7c-5-7.6-9.8-15.4-14.7-23.1c-4.2-6.6-7.9-13.5-11.6-20.3
	c-7.2-13.1-15.5-25.5-22.8-38.5c-7.2-12.9-15.7-25-22.9-37.9c-4.4-7.8-8.8-15.6-12.9-23.6c-3-5.9-5.2-12.2-7.7-18.4
	C558,4.6,558.4,1.9,560.9,0L560.9,0z"/>
<path class="st1" d="M156.9,0h154c1.7,1.3,2.5,3.1,2.4,5.2c-0.1,3.7,1.2,7.1,2.4,10.6c6,17,18.9,26.2,34.9,32.4
	c9.1,3.6,18.6,5.9,27.8,9.4c3.4,1.3,7.1,1.7,10.6,2.6c8.9,2.1,17.5,4.9,26.3,7.3c7.3,2,14.2,5.6,21.3,8.3
	c10.1,3.9,18.9,9.5,27.8,15.3c13.9,9,26.6,19.8,36.6,32.8c10.1,13.2,20.1,27,25.1,43.4c2.9,9.5,6.4,18.8,8.8,28.5
	c1.7,6.7,3.9,13.3,5.6,20.1c0.6,2.5,0.5,4.6-1.6,6.2h-64c-2.1-1.6-2.5-3.8-2.5-6.2v-12.5c0-3.5-0.7-6.8-1.9-10.2
	c-2-5.6-1.3-11.8-3-17.6c-3.2-11.1-6.9-21.9-14.9-30.6c-11-12-23.2-22.5-38.1-29.4c-11.1-5.1-22.9-7.9-34.6-11.1
	c-9.3-2.6-19.1-2.8-28.2-5.4c-10-2.8-20.4-2.2-30.3-4.8c-8.6-2.3-17.4-1.2-26-3.9c-7.9-2.4-16.5-0.8-25,1.6
	c-8.7,2.5-16.4,6.1-23.6,11.4c-4.8,3.6-7.5,8.8-11.3,13.2c-7.9,9.2-13.8,19.6-20,29.8c-10,16.5-19.8,33.1-30.4,49.2
	c-5.9,8.9-10.1,19.2-18.5,26.4h-26c-2.6-2-2.6-4.5-1-7.1c5.2-8.7,10-17.6,15.3-26.2c1.4-2.3,2.6-4.6,3.9-7
	c7.6-14.4,14.8-28.8,21.2-43.8c5-11.6,7.9-23.8,10.2-35.8s2.2-24.6-2.5-36.8c-4.7-12.3-10.4-24-17.3-35.2c-5-8.2-9.9-16.5-14-25.2
	C155.8,3.1,155.1,1.6,156.9,0L156.9,0z"/>
<path class="st2" d="M764.9,0c0.6,3.4,1.9,6.5,4.4,8.8c10.5,9.6,17.5,21.9,23.4,34.4c5.4,11.4,11.3,23.1,10.2,36.5
	c-0.1,1.9,0.5,3.6,1.3,5.2c2.4,4.7,2.4,9.6-0.1,14.3c-0.8,1.5-1.3,3.1-1.3,4.8c-0.3,22.5-10.4,40.9-25.9,55.8
	c-10.2,9.9-22.9,16.3-38.4,16.4c-13.8,0.2-24.9-4.2-35.7-12.4c-11.7-8.9-19-21-26.8-32.8c-6.4-9.6-11.7-19.9-16-30.5
	c-5.8-14.1-13.4-27.4-17.8-42.1c-1.5-5.1-2.9-10.6-6.2-15.1c-2.1-2.8-2.1-6.5-2.2-9.6c-0.4-8.5-5-16.6-1.5-25.4
	c1-2.5,0.3-5.6,0.5-8.4C676.9,0,720.9,0,764.9,0z"/>
<path class="st3" d="M793.9,222c0.7-2.7,3.1-3.3,5.2-4.3c13.1-5.8,22.8-15.4,31.8-26.4c6.4-7.8,10.6-16.8,16.6-24.7
	c2.5-3.3,3.7-7.4,5.7-11c5.7-10.1,11-20.4,16.6-30.5c6-10.9,12.2-21.7,18.3-32.5c8.7-15.6,12.7-32.4,10.6-50.2
	c-1.1-9.7-6-17.9-12.8-24.8c-5.2-5.2-9-11.4-13-17.5h118c1.1,1,2.3,2.1,2.2,3.7c-0.3,9,0.9,17.9-2.1,27.1
	c-4.5,13.7-10.8,26.5-18,38.8c-10.8,18.5-22.4,36.5-33.9,54.6c-8.9,14-16.1,28.7-20.1,44.8c-3,12.3-3.2,24.5,1.5,36.6
	c1.5,3.7,2.3,7.6,4.3,11.2c1.1,2.1,0.8,3.8-1,5.3C880.5,222,837.2,222,793.9,222L793.9,222z"/>
<path class="st4" d="M166.9,222c1.9-6.8,6-12.4,9.8-18.1c9.4-14.1,17.8-28.7,26.8-43c5.7-9,11.2-18.1,16.7-27.2
	c4.9-8,10.7-15.2,16.1-22.6c8.1-11.1,18.9-18.1,32.6-21.5c6.4-1.5,12.5-2.8,19-2.6c4.7,0.1,9.3-0.3,13.6,2.3c1,0.6,2.6,0.7,3.9,0.6
	c13.8-0.4,27.2,3.3,40.9,4.7c8.8,0.9,18,2.7,26.6,4.9c16.9,4.5,34.2,8,49.6,16.7c5,2.9,9.9,6.1,14.2,10
	c12.6,11.2,25.7,22.1,30.5,39.6c2.2,7.8,2.9,16,5.2,23.5c3.4,11,1.4,21.8,2.4,32.6h-58c-1.7-1.3-2.4-3.1-2.4-5.2
	c0.1-13.3-4.6-25.4-10-37.2c-5.2-11.5-14.4-19.4-25.3-25.3c-12.6-6.7-25.9-11-39.9-13.4c-2.5-0.4-5-0.4-7.5-0.4s-5-0.3-7.2-1.6
	c-1.9-1.1-4.1-1.4-6.3-1.4h-6.5c-18-0.4-34.9,3.9-50.6,12.5c-4.8,2.6-9,6.3-13.1,9.9c-10.9,9.7-19.9,20.9-28.5,32.6
	c-4,5.5-9.5,10-12.7,16c-2.8,5.3-6.9,9.3-11,13.4C186.3,222,176.6,222,166.9,222L166.9,222z"/>
<path class="st5" d="M538.9,222c-1.5-7.8-2.6-15.7-6-23c-1.6-3.3-1.2-7.1-2.6-10.6c-4-9.4-5.6-19.7-10.1-29
	c-4.4-9.4-10.4-17.7-15.8-26.5c-6.1-10.1-14.5-18.2-23.2-25.8c-8.8-7.7-18.5-14.2-28.5-20.5c-7.7-4.8-16.2-7.5-24.1-11.5
	c-9-4.5-19.1-6.4-28.8-9.2c-13.7-3.9-27.4-7.5-41-11.7c-16.2-5-30-13.3-40.6-26.5c-4.4-5.4-5.9-12.1-7.2-18.8c-0.6-2.9-0.1-6-0.1-9
	h55c5.5,2.6,9.3,7.4,14,11c7.1,5.4,15.5,7.6,23.3,11c12.3,5.4,25.4,8.7,38,13.3c11.9,4.3,23.1,10,34,16.6
	c17.4,10.5,31.5,24.7,46,38.7c10.6,10.3,19.5,21.8,28.2,33.5c7.2,9.7,13,20.4,18.7,31.1c7.9,14.8,14.5,30.2,22.2,45.1
	c2.9,5.6,5.7,11.3,8.8,16.8c1,1.7,1.5,3.4-0.3,4.9C578.9,222,558.9,222,538.9,222L538.9,222z"/>
<path class="st0" d="M51.9,222H0V0h14c4.6,3.9,7.9,8.8,10.5,14.2c5,10.2,11.4,19.7,19,27.9c8.8,9.5,15.9,20.4,24.3,30.3
	c4.6,5.5,6.9,12.8,9.9,19.5c4,9.2,6.5,19.1,5.5,29c-0.7,7.6-1.8,15.3-3.9,22.9c-3.1,11-7,21.8-9.6,32.9c-2.1,9-6.1,17.5-9,26.3
	c-1.1,3.5-1.5,7.1-2.4,10.7C57.2,217.5,55.4,220.2,51.9,222L51.9,222z"/>
<path class="st6" d="M598.9,222c-5.9-11.5-11.9-23-17.8-34.5c-2.4-4.7-4.9-9.4-6.6-14.5c-2.4-7.3-7.3-13.3-10.8-20.1
	c-7.6-14.6-17-28.1-27.1-41.3c-9.7-12.6-21.5-23-32.5-34.2C487.8,60.8,468,49,446.7,39.9c-9.7-4.1-20.1-6.8-30.2-9.7
	c-5.1-1.5-9.5-4.4-14.7-6c-8.3-2.6-16.6-5.7-23.6-11.3C373.5,9.2,368.8,5.5,366,0h118c18.8,11.6,32.3,28.8,47.2,44.6
	c7,7.4,12.5,15.9,19.4,23.4c9.1,9.9,16.8,20.9,24.5,31.9c8,11.4,15.7,23.1,23,34.9c4.8,7.9,9.5,15.9,14,24.1
	c6.7,12.4,13.8,24.6,21,36.7c4.4,7.3,10.1,13.5,14,21c1,1.8,2,3.6-0.1,5.3C630.9,222,614.9,222,598.9,222L598.9,222z"/>
<path class="st7" d="M195.9,222c0-1.9,0.5-3.5,1.7-5.1c8.5-11.6,17.8-22.6,26.3-34.1c6.6-8.9,14.2-16.7,22.2-24.2
	c11.8-11,25.5-18,41.8-21.2c10-2,19.7-2.2,29.5-2.2c8.2,0,16,3.1,24.3,3.8c4.4,0.4,9.1,1.5,13.6,2.7c9.8,2.6,19.3,6.4,27.8,11.6
	c13.5,8.1,23.4,19.6,28.3,35.3c3.5,11,6.6,21.8,5.6,33.5h-58c-2.6-1.6-4-4-5.7-6.5c-9-13.2-19.7-23.9-36.3-27.3
	c-6.2-1.3-12.2-3.8-18.4-2.5c-12.4,2.4-24.8,4.8-35.8,12.3c-9.2,6.3-18.1,12.8-25.8,20.9c-1.4,1.5-3.6,1.7-5,3.2
	C219.9,222,207.9,222,195.9,222z"/>
<path class="st3" d="M646.9,222c-2.3-4.8-4.7-9.5-8.7-13.2c-4.8-4.5-6.6-11-10.1-16.4c-7.9-12.2-14.2-25.4-21.6-38
	c-8.4-14.3-17.2-28.3-26.4-42.1c-6.6-9.9-14.1-19.1-20.3-29.3c-3-4.9-7.2-9.2-11.2-13.3c-6.9-7.1-12.4-15.2-18.6-22.6
	c-11.1-13.4-24.2-24.7-35.9-37.4c-2.5-2.8-6.3-3.8-8.6-6.7c-0.7-0.9-1.1-2-1.7-3h77c-0.1,9.2,5.2,16.6,8.4,24.7
	c3.7,9.4,9.2,18,14.5,26.6c5,8,9.5,16.3,14.7,24.1c4.3,6.3,7.7,13.1,11.6,19.6c4.2,6.9,8.7,13.7,12.8,20.7
	c5.1,8.7,9.6,17.8,14.8,26.4c7.8,12.9,16.3,25.3,24.3,38c7.3,11.5,17.7,19.7,27,29.1c3.8,3.9,9.3,6.2,14.2,9
	c1.6,0.9,3.4,1.4,3.7,3.7C686.9,222,666.9,222,646.9,222L646.9,222z M51.9,222c3.5-6,4.1-12.9,6-19.3c2.9-9.5,7.1-18.6,9.4-28.2
	c2.5-10.6,6.2-20.9,9.3-31.4c2-6.8,2.2-13.6,3.8-20.4c2-8.1-1.1-16.3-3.4-24.2c-1.4-4.8-3.8-9.2-5.7-13.7c-4-9.8-11.3-17-17.2-25.4
	C47.6,50,39,42.5,32.9,33c-3.9-5.9-8.6-11.4-11-18.3C20,9.4,14.5,6.1,14,0h59c2.4,1.6,4.1,3.7,5.3,6.3c4.2,8.5,9.2,16.6,14.5,24.4
	c9.9,14.3,18.6,29.1,26.1,44.8c4.7,9.9,6.7,20.4,7.5,31.2c0.8,9.7-0.3,19.3-2.4,28.7c-1.9,8.5-5.2,16.7-8.3,25
	c-5.3,14.6-14,27.6-19,42.3c-1.9,5.5-5.4,10.3-6.9,16c-0.5,1.9-2.8,2-4,3.3H51.9z"/>
<path class="st6" d="M923.8,222c-1-5.6-4.7-10.1-5.9-15.8c-2-9.8-4.9-19-2.9-29.6c2-10,5-19.5,8.2-29c3.2-9.3,9.4-17.1,14.3-25.5
	c5.5-9.5,10.9-19,17-28.1s12.3-18.2,17.4-27.8c6.2-11.7,12.2-23.4,16.4-36.1c3.4-10.2,1.4-20.1,2.4-30h7v99
	c-5.4,17.1-16.2,32-20.5,49.6c-2.8,11.6-6.9,22.9-6.1,35.1c0.6,9.1,1.7,18.1,4.2,26.9c1,3.5,3.2,7.5,0.3,11.3L923.8,222L923.8,222z"
	/>
<path class="st5" d="M156.9,0c7.6,13.4,15,26.9,22.9,40.1c6,10.1,9.4,21.2,13.5,32c1.8,4.6,0.2,9.9,0.6,14.9
	c1.4,15.3-3.4,29.7-7.8,43.7c-3.7,11.5-8.2,23.3-14.6,33.6c-5.8,9.3-9.7,19.5-16,28.6c-4.6,6.6-8,14.1-12.3,21
	c-1.5,2.4-2.6,5.1-2.3,8h-27c-2.3-2-1.5-4.2-0.4-6.3c7.2-14,13.4-28.6,21.9-42c4.2-6.6,6.4-14.5,9.4-21.9c2.7-6.6,4.9-13.4,6.6-20.3
	c2.8-11.8,6.1-23.8,3.6-35.8c-2.7-13.1-5.9-26.2-12.7-38.1c-8-14.2-16.3-28.1-24.8-42.1c-1.9-3.1-3.2-6.6-4.5-10
	c-0.7-1.9-1.1-3.9,0.9-5.4C113.9,0,156.9,0,156.9,0z"/>
<path class="st6" d="M113.9,0c3.1,11.8,10.5,21.5,16.5,31.7c5.9,10.1,11.8,20.3,17.4,30.6c5.1,9.5,7.4,20.1,9.3,30.3
	c1.8,9.6,2.2,19.9-1.3,30c-2.2,6.3-2.6,13.3-4.9,19.7c-1.9,5.4-3.4,11.1-6.1,16.2c-1.8,3.4-3.5,6.8-4.2,10.6
	c-0.5,2.2-1.6,4.4-2.9,6.3c-9.6,13.9-15.8,29.6-23.2,44.6c-0.3,0.6-0.4,1.3-0.5,1.9H86c6.1-17.1,14.2-33.2,21.7-49.7
	c4.7-10.2,9-20.5,11.9-31.5c2.1-7.9,3.8-15.7,4.3-23.8c0.9-16.4-2.9-31.7-10.2-46.4C106.2,55.8,97,42.3,88.2,28.4
	C82.5,19.4,75.9,10.6,73,0H113.9z"/>
<path class="st8" d="M231.9,222c4.3-7.5,10.6-13.6,17.4-18.2c9.6-6.5,18.7-14.4,30.7-16.9c9.2-1.9,18.2-5.6,27.7-3.7
	c11.8,2.3,23.7,5,32.7,14c7.4,7.3,15.8,13.9,18.4,24.9C316.6,222,274.3,222,231.9,222L231.9,222z"/>
<path class="st5" d="M975.8,222c-1.8-7.5-4.3-14.8-5.4-22.6c-0.9-6.6-1.6-13.1-1.6-19.8c0-8.8,2.4-17.2,4.5-25.7
	c2.4-9.7,5.5-19.1,9.7-28.1c3.8-8,7.9-15.8,11.8-23.7c0.7-1.4,1.4-2.6,2.9-3.2v123C990.5,222,983.2,222,975.8,222z"/>
</svg>
