<svg id="Layer_1" data-name="Layer 1" xmlns="http://www.w3.org/2000/svg" xmlns:xlink="http://www.w3.org/1999/xlink" viewBox="0 0 64 41.75"><defs><style>.cls-1{fill:#fff;}.cls-2,.cls-3,.cls-4{fill:none;stroke:#fff;stroke-miterlimit:10;}.cls-2{stroke-width:0.82px;}.cls-3{stroke-width:0.25px;}.cls-4{stroke-width:0.28px;stroke-dasharray:1.81;}.cls-5{mask:url(#mask);}.cls-6{fill:url(#linear-gradient);}</style><mask id="mask" x="12.5" y="3.67" width="38.53" height="38.08" maskUnits="userSpaceOnUse"><circle class="cls-1" cx="35.44" cy="34.33" r="0.94" transform="translate(-8.34 11.57) rotate(-16.61)"/><rect class="cls-2" x="24.8" y="8.83" width="14.42" height="28" rx="1.56" ry="1.56" transform="translate(-5.19 10.11) rotate(-16.61)"/><rect class="cls-3" x="25.89" y="11.77" width="11.89" height="20.92" transform="translate(-5.03 10.03) rotate(-16.61)"/><rect class="cls-1" x="26.92" y="10.69" width="3.04" height="0.35" rx="0.17" ry="0.17" transform="translate(-1.92 8.59) rotate(-16.61)"/><path class="cls-4" d="M26.19,32.66A11.93,11.93,0,0,1,22,17.35"/><path class="cls-4" d="M38.12,13.24a11.92,11.92,0,0,1,4.06,15.15"/><path class="cls-4" d="M25.42,36a14.72,14.72,0,0,1-4.8-22.48"/><path class="cls-4" d="M38.09,9.43a14.72,14.72,0,0,1,5.84,22.06"/><circle class="cls-4" cx="32.01" cy="22.83" r="17.76"/></mask><linearGradient id="linear-gradient" x1="1755.03" y1="1112.1" x2="1716.95" y2="1112.1" gradientTransform="translate(-1704.23 -1089.39)" gradientUnits="userSpaceOnUse"><stop offset="0" stop-color="#253345"/><stop offset="0.3" stop-color="#355972"/><stop offset="0.58" stop-color="#607a90"/><stop offset="0.97" stop-color="#9daeba"/></linearGradient></defs><title>dropusaline-03</title><g class="cls-5"><rect class="cls-6" x="12.72" y="3.45" width="38.08" height="38.53" transform="translate(54.47 -9.05) rotate(90)"/></g></svg>