<svg id="Layer_1" data-name="Layer 1" xmlns="http://www.w3.org/2000/svg" xmlns:xlink="http://www.w3.org/1999/xlink" viewBox="0 0 64 41.75"><defs><style>.cls-1,.cls-2,.cls-3,.cls-4,.cls-5,.cls-6,.cls-7{fill:none;stroke:#fff;}.cls-1,.cls-2,.cls-4,.cls-5,.cls-6,.cls-7{stroke-miterlimit:10;}.cls-1,.cls-7{stroke-width:0.28px;}.cls-2{stroke-width:0.82px;}.cls-3{stroke-linecap:round;stroke-linejoin:round;}.cls-3,.cls-5{stroke-width:0.83px;}.cls-4{stroke-width:0.25px;}.cls-6{stroke-width:0.29px;stroke-dasharray:1.93;}.cls-7{stroke-dasharray:1.81;}.cls-8{mask:url(#mask);}.cls-9{fill:url(#linear-gradient);}</style><mask id="mask" x="2.51" y="-0.72" width="58.97" height="43.85" maskUnits="userSpaceOnUse"><line class="cls-1" x1="14.46" y1="32.12" x2="13.1" y2="34.36"/><line class="cls-1" x1="16.95" y1="32.12" x2="15.84" y2="34.36"/><rect class="cls-2" x="10.36" y="5.99" width="41.44" height="24.76" rx="1.58" ry="1.58"/><polygon class="cls-3" points="10.52 30.76 5.16 37.96 56.99 37.96 51.45 30.76 10.52 30.76"/><path class="cls-3" d="M5.16,38s0,2.68,2.19,2.68h47.4A2.38,2.38,0,0,0,57,38"/><rect class="cls-2" x="12.27" y="8.07" width="37.56" height="20.86"/><polygon class="cls-1" points="11.86 32.12 10.36 34.36 51.8 34.36 49.97 32.12 11.86 32.12"/><polygon class="cls-4" points="25.58 35.26 24.68 36.69 37.29 36.69 36.53 35.26 25.58 35.26"/><path class="cls-1" d="M27.1,38s.17,1,1,1h5.93a1,1,0,0,0,1.18-1"/><line class="cls-1" x1="11.22" y1="33.08" x2="50.75" y2="33.08"/><line class="cls-1" x1="19.48" y1="32.12" x2="18.58" y2="34.36"/><line class="cls-1" x1="22.18" y1="32.12" x2="21.32" y2="34.36"/><line class="cls-1" x1="24.68" y1="32.12" x2="24.05" y2="34.36"/><line class="cls-1" x1="27.1" y1="32.12" x2="26.9" y2="34.36"/><line class="cls-1" x1="29.7" y1="32.12" x2="29.7" y2="34.36"/><line class="cls-1" x1="32.37" y1="32.12" x2="32.37" y2="34.36"/><line class="cls-1" x1="35.07" y1="32.12" x2="35.07" y2="34.36"/><line class="cls-1" x1="37.43" y1="32.12" x2="37.95" y2="34.36"/><line class="cls-1" x1="40.03" y1="32.12" x2="40.58" y2="34.36"/><line class="cls-1" x1="42.66" y1="32.12" x2="43.35" y2="34.36"/><line class="cls-1" x1="45.23" y1="32.12" x2="46.16" y2="34.36"/><line class="cls-1" x1="47.65" y1="32.12" x2="48.86" y2="34.36"/><rect class="cls-5" x="20.58" y="12.16" width="21" height="12.69" rx="0.82" ry="0.82"/><polyline class="cls-1" points="20.58 12.98 31.08 20.49 41.58 12.98"/><line class="cls-1" x1="27.31" y1="17.79" x2="20.58" y2="24.03"/><line class="cls-1" x1="34.85" y1="17.79" x2="41.58" y2="24.03"/><polyline class="cls-6" points="19.03 18.47 4.81 18.47 4.81 32.12"/><polyline class="cls-7" points="43.11 15.98 54.57 15.98 54.57 1.26 59.37 1.26"/><polyline class="cls-6" points="43.11 18.41 57.32 18.41 57.32 12.76 59.37 12.76"/><line class="cls-6" x1="43.11" y1="20.52" x2="59.37" y2="20.52"/></mask><linearGradient id="linear-gradient" x1="32" y1="43.13" x2="32" y2="-0.72" gradientTransform="translate(10.8 53.2) rotate(-90)" gradientUnits="userSpaceOnUse"><stop offset="0" stop-color="#1e524f"/><stop offset="0.3" stop-color="#366e68"/><stop offset="0.63" stop-color="#4a9b96"/><stop offset="0.97" stop-color="#d4e7e7"/></linearGradient></defs><title>emailus</title><g class="cls-8"><rect class="cls-9" x="10.08" y="-8.28" width="43.85" height="58.97" transform="translate(53.2 -10.8) rotate(90)"/></g></svg>