<svg id="Layer_1" data-name="Layer 1" xmlns="http://www.w3.org/2000/svg" xmlns:xlink="http://www.w3.org/1999/xlink" viewBox="0 0 64 41.75"><defs><style>.cls-1,.cls-10,.cls-11,.cls-12,.cls-13,.cls-14,.cls-16,.cls-17,.cls-18,.cls-19,.cls-2,.cls-20,.cls-21,.cls-22,.cls-23,.cls-24,.cls-3,.cls-4,.cls-5,.cls-6,.cls-7,.cls-8,.cls-9{fill:none;stroke:#fff;}.cls-1,.cls-13,.cls-19{stroke-linecap:round;}.cls-1{stroke-linejoin:round;}.cls-1,.cls-12,.cls-19{stroke-width:0.79px;}.cls-10,.cls-11,.cls-12,.cls-13,.cls-14,.cls-16,.cls-17,.cls-18,.cls-19,.cls-2,.cls-20,.cls-21,.cls-22,.cls-23,.cls-24,.cls-3,.cls-4,.cls-5,.cls-6,.cls-7,.cls-8,.cls-9{stroke-miterlimit:10;}.cls-13,.cls-2{stroke-width:0.14px;}.cls-3{stroke-width:0.29px;}.cls-24,.cls-4{stroke-width:0.24px;}.cls-5{stroke-width:0.38px;}.cls-6{stroke-width:0.19px;}.cls-7{stroke-width:0.2px;}.cls-8{stroke-width:0.18px;}.cls-9{stroke-width:0.17px;}.cls-10{stroke-width:0.15px;}.cls-11{stroke-width:0.1px;}.cls-14{stroke-width:0.77px;}.cls-15{fill:#fff;}.cls-16{stroke-width:0.15px;}.cls-17{stroke-width:0.13px;}.cls-18{stroke-width:0.26px;}.cls-20{stroke-width:0.21px;}.cls-21{stroke-width:0.1px;}.cls-22{stroke-width:0.12px;}.cls-23{stroke-width:0.1px;}.cls-24{stroke-dasharray:1.28;}.cls-25{mask:url(#mask);}.cls-26{fill:url(#linear-gradient);}</style><mask id="mask" x="0.85" y="5.13" width="63.18" height="36.87" maskUnits="userSpaceOnUse"><polyline class="cls-1" points="20.07 9.44 20.07 33.01 3.01 25.37 3.21 15.48"/><line class="cls-1" x1="20.07" y1="33.01" x2="20.07" y2="9.44"/><line class="cls-1" x1="23.49" y1="32.44" x2="20.07" y2="33.01"/><polyline class="cls-2" points="24.92 31.32 24.92 31.79 23.42 32.1 23.42 32.51"/><line class="cls-2" x1="25.72" y1="31.05" x2="24.92" y2="31.32"/><polyline class="cls-2" points="26.1 30.52 26.1 30.95 25.87 31"/><polyline class="cls-2" points="27.29 29.74 27.29 30.25 26.1 30.53"/><polyline class="cls-2" points="28.38 29.06 28.39 29.49 27.29 29.74"/><line class="cls-2" x1="29.47" y1="28.89" x2="28.38" y2="29.06"/><line class="cls-2" x1="32.92" y1="27.99" x2="29.67" y2="28.41"/><line class="cls-2" x1="35.3" y1="27.69" x2="33.16" y2="27.96"/><line class="cls-3" x1="35.3" y1="17.38" x2="35.3" y2="27.69"/><line class="cls-4" x1="35.3" y1="12.9" x2="35.3" y2="15.16"/><polygon class="cls-4" points="38.58 12 21.82 10.56 21.82 11.87 38.58 13.2 38.58 12"/><polygon class="cls-4" points="23.02 15.01 23.02 15.69 27.1 15.21 39.93 16.21 39.93 15.61 27.1 14.4 23.02 15.01"/><line class="cls-5" x1="27.1" y1="14.4" x2="27.1" y2="15.2"/><polyline class="cls-6" points="23.49 15.63 23.49 16.86 27.69 16.7 27.95 16.03 27.95 15.27"/><polyline class="cls-6" points="28.82 15.34 28.82 16.03 27.95 16.03"/><polyline class="cls-6" points="28.82 16.03 28.45 16.7 27.69 16.7 27.69 17.22 31.99 16.94 32.26 16.36"/><polyline class="cls-6" points="35.99 15.9 35.99 16.59 36.61 16.59 36.61 15.95"/><polyline class="cls-6" points="31.99 16.94 32.62 16.89 32.98 16.36"/><polyline class="cls-6" points="31.24 16.99 31.24 17.39 35.68 17.12 35.99 16.59"/><polyline class="cls-6" points="36.61 16.59 36.34 17.11 35.68 17.12"/><polyline class="cls-6" points="28.82 15.77 32.26 15.61 32.26 16.36 32.98 16.36 32.98 15.66"/><line class="cls-6" x1="35.83" y1="15.89" x2="32.98" y2="16.03"/><polyline class="cls-6" points="34.48 17.19 34.48 17.51 35.3 17.46 39.03 17.29 39.36 16.86 39.36 16.16 36.61 16.32"/><polyline class="cls-6" points="39.97 16.21 39.97 16.84 39.78 17.25 39.03 17.29"/><line class="cls-6" x1="39.36" y1="16.86" x2="39.93" y2="16.85"/><polygon class="cls-4" points="42.68 19.15 42.61 25.64 46.68 25.28 46.75 19.34 42.68 19.15"/><polygon class="cls-4" points="51.07 19.53 50.99 24.89 53.81 24.63 53.91 19.66 51.07 19.53"/><path class="cls-4" d="M57.08,19.81l2.3.11v4.21L57,24.34Z"/><polygon class="cls-7" points="52.34 16.3 52.34 17.58 53.01 17.63 53.01 16.36 52.34 16.3"/><polygon class="cls-4" points="44.47 15.16 44.47 16.85 45.56 16.94 45.56 15.3 44.47 15.16"/><polygon class="cls-4" points="13.5 18.93 15.93 18.81 16.02 25.41 13.5 24.96 13.5 18.93"/><polygon class="cls-4" points="11.98 19 11.97 24.68 10.19 24.36 10.19 19.08 11.98 19"/><polygon class="cls-8" points="8.59 19.96 7.58 19.96 7.59 23.37 8.59 23.48 8.59 19.96"/><polygon class="cls-9" points="6.34 19.27 6.34 23.65 5.38 23.48 5.38 19.31 6.34 19.27"/><polygon class="cls-10" points="4.55 19.35 4.55 23.33 3.81 23.19 3.81 19.39 4.55 19.35"/><polygon class="cls-4" points="23.14 18.78 23.14 26.32 30.07 25.88 30.07 19.03 23.14 18.78"/><polyline class="cls-4" points="34.83 27.75 34.82 18.78 31.42 18.7 31.49 28.2"/><line class="cls-11" x1="39.52" y1="28.46" x2="61.23" y2="25.4"/><line class="cls-12" x1="39.48" y1="17.25" x2="39.35" y2="28.48"/><line class="cls-2" x1="29.67" y1="28.48" x2="32.92" y2="29.35"/><line class="cls-2" x1="29.7" y1="29.43" x2="31.66" y2="29.98"/><line class="cls-13" x1="28.38" y1="29.06" x2="29.5" y2="29.37"/><line class="cls-2" x1="29.67" y1="28.94" x2="32.14" y2="29.66"/><line class="cls-2" x1="29.66" y1="30.5" x2="30.52" y2="30.73"/><line class="cls-13" x1="27.29" y1="29.73" x2="29.5" y2="30.45"/><line class="cls-2" x1="29.5" y1="31.04" x2="27.23" y2="30.24"/><line class="cls-13" x1="29.15" y1="31.64" x2="26.1" y2="30.53"/><line class="cls-2" x1="26.03" y1="30.96" x2="28.72" y2="31.92"/><line class="cls-13" x1="25.72" y1="31.57" x2="24.92" y2="31.32"/><line class="cls-2" x1="28.01" y1="32.4" x2="25.81" y2="31.6"/><line class="cls-2" x1="25.72" y1="32.13" x2="24.92" y2="31.79"/><line class="cls-2" x1="27.46" y1="32.86" x2="25.83" y2="32.17"/><line class="cls-2" x1="29.67" y1="29.94" x2="31.08" y2="30.36"/><line class="cls-2" x1="28.34" y1="29.5" x2="29.5" y2="29.89"/><line class="cls-2" x1="36.11" y1="27.85" x2="38.99" y2="28.49"/><line class="cls-2" x1="35.3" y1="27.69" x2="35.94" y2="27.82"/><line class="cls-2" x1="25.83" y1="32.86" x2="26.82" y2="33.25"/><line class="cls-2" x1="23.67" y1="32.05" x2="25.72" y2="32.82"/><line class="cls-2" x1="25.79" y1="33.52" x2="26.7" y2="33.91"/><line class="cls-2" x1="23.67" y1="32.62" x2="25.69" y2="33.48"/><line class="cls-4" x1="31.47" y1="12.61" x2="31.47" y2="14.8"/><line class="cls-4" x1="27.36" y1="12.29" x2="27.36" y2="14.42"/><line class="cls-14" x1="39.58" y1="9.78" x2="39.48" y2="15.57"/><line class="cls-12" x1="35.3" y1="10.71" x2="39.58" y2="9.78"/><line class="cls-4" x1="35.3" y1="11.68" x2="35.17" y2="9.05"/><polyline class="cls-14" points="39.34 28.82 32.48 29.78 26.89 33.4 26.89 34.59 26.9 34.6 61.14 27.56 61.23 15.21"/><line class="cls-11" x1="19.94" y1="29.21" x2="3.01" y2="24.15"/><line class="cls-12" x1="20.07" y1="9.44" x2="20.07" y2="8.03"/><path class="cls-15" d="M38.35,23.58l-3.58.16a1.12,1.12,0,0,0-.58.16l-9.62,6s-.51.29-.27.71.72,0,.72,0l9.34-5.86a1.23,1.23,0,0,1,.55-.19l3.66-.25,0,4.32,0,0h.14a0,0,0,0,0,0,0V23.9S38.75,23.58,38.35,23.58Zm.23.57-3.44.22a1.86,1.86,0,0,0-.87.21l-9,5.64s-.67.51-.82.31.13-.42.13-.42l9.59-6a.74.74,0,0,1,.56-.22l3.51-.15c.31,0,.3.09.3.09Z"/><polyline class="cls-1" points="39.48 7.94 39.48 8.41 39.58 8.44 39.58 9.78 61.48 14.99 61.48 13.73 39.48 7.94 35.17 9.05 20.07 6.02 20.07 8.03 3.01 14.59 3.01 13.12 20.07 6.02"/><line class="cls-12" x1="35.3" y1="10.71" x2="20.07" y2="8.03"/><polygon class="cls-4" points="14.34 14.77 14.94 14.65 14.94 16.39 14.34 16.47 14.34 14.77"/><polygon class="cls-4" points="11.09 15.47 10.54 15.58 10.54 17.03 11.09 16.95 11.09 15.47"/><polygon class="cls-6" points="8.22 16.09 7.82 16.17 7.82 17.43 8.22 17.36 8.22 16.09"/><polygon class="cls-16" points="5.97 16.57 5.67 16.64 5.67 17.74 5.97 17.7 5.97 16.57"/><polygon class="cls-16" points="4.31 16.94 4.01 16.99 4.01 17.99 4.31 17.95 4.31 16.94"/><line class="cls-17" x1="61.23" y1="15.2" x2="61.23" y2="14.93"/><line class="cls-12" x1="3.21" y1="15.48" x2="3.21" y2="14.49"/><line class="cls-18" x1="3.01" y1="14.59" x2="3.19" y2="14.65"/><polygon class="cls-11" points="34.2 19.42 32.12 19.37 32.17 27.17 34.2 26.93 34.2 19.42"/><line class="cls-19" x1="39.35" y1="28.48" x2="39.34" y2="28.82"/><polygon class="cls-6" points="58.06 16.92 58.06 18.07 58.66 18.12 58.66 16.98 58.06 16.92"/><path class="cls-19" d="M1.52,28.56,15,38.38a12.92,12.92,0,0,0,10.88,1.8c6.45-1.59,5-1,35.91-8.72"/><line class="cls-20" x1="57.03" y1="22.12" x2="59.38" y2="22.08"/><line class="cls-20" x1="50.99" y1="22.24" x2="53.86" y2="22.18"/><line class="cls-4" x1="42.64" y1="22.4" x2="46.72" y2="22.32"/><line class="cls-21" x1="4.55" y1="21.51" x2="3.81" y2="21.46"/><line class="cls-22" x1="6.34" y1="21.64" x2="5.38" y2="21.57"/><line class="cls-16" x1="8.59" y1="21.8" x2="7.58" y2="21.73"/><line class="cls-4" x1="11.98" y1="22.04" x2="10.19" y2="21.91"/><line class="cls-4" x1="15.98" y1="22.32" x2="13.49" y2="22.14"/><line class="cls-23" x1="39.48" y1="15.44" x2="61.21" y2="17.82"/><line class="cls-23" x1="20.07" y1="14.58" x2="3.16" y2="17.74"/><line class="cls-4" x1="26.6" y1="18.91" x2="26.6" y2="26.1"/><line class="cls-4" x1="23.14" y1="22.67" x2="30.07" y2="22.55"/><line class="cls-4" x1="44.63" y1="19.24" x2="44.57" y2="25.47"/><line class="cls-20" x1="52.38" y1="19.59" x2="52.34" y2="24.76"/><line class="cls-20" x1="57.98" y1="19.85" x2="57.93" y2="24.26"/><line class="cls-4" x1="15.2" y1="18.84" x2="15.2" y2="25.26"/><line class="cls-4" x1="11.22" y1="19" x2="11.22" y2="24.54"/><line class="cls-16" x1="8.09" y1="19.98" x2="8.09" y2="23.47"/><line class="cls-22" x1="5.91" y1="19.27" x2="5.91" y2="23.57"/><line class="cls-21" x1="4.16" y1="19.35" x2="4.16" y2="23.27"/><polyline class="cls-24" points="2.52 26.91 17.84 35.52 24.11 33.76"/><path class="cls-24" d="M61.21,29.05s-34.39,7.69-36.78,7.69a4.66,4.66,0,0,1-3.49-1.3l2.42-.64"/><path class="cls-15" d="M25.82,35.31h-.07a.11.11,0,0,1-.11-.11V30.05c0-.06.06,0,.12,0l.06-.07a.11.11,0,0,1,.11.11V35.2A.11.11,0,0,1,25.82,35.31Z"/><path class="cls-15" d="M29.61,32h-.07a.11.11,0,0,1-.11-.11V27.74a.12.12,0,0,1,.11-.12l.07-.06a.11.11,0,0,1,.11.11v4.18A.11.11,0,0,1,29.61,32Z"/><rect class="cls-15" x="32.9" y="25.4" width="0.25" height="4.36" rx="0.11" ry="0.11"/><rect class="cls-15" x="35.91" y="24.38" width="0.25" height="4.87" rx="0.11" ry="0.11"/></mask><linearGradient id="linear-gradient" x1="1857.77" y1="1213.92" x2="1820.91" y2="1213.92" gradientTransform="translate(-1806.9 -1190.36)" gradientUnits="userSpaceOnUse"><stop offset="0" stop-color="#253345"/><stop offset="0.3" stop-color="#355972"/><stop offset="0.58" stop-color="#607a90"/><stop offset="0.97" stop-color="#9daeba"/></linearGradient></defs><title>MFDVisitUS-02</title><g class="cls-25"><rect class="cls-26" x="14" y="-8.03" width="36.87" height="63.18" transform="translate(56 -8.88) rotate(90)"/></g></svg>